<svg xmlns="http://www.w3.org/2000/svg" viewBox="0 0 491.1 491.1" style="enable-background:new 0 0 491.1 491.1" xml:space="preserve">
    <path d="M470.3.5H20.9C9.4.5 0 9.9 0 21.4v448.3c0 11.5 9.4 20.9 20.9 20.9h448.3c11.5 0 20.9-9.4 21.9-19.8V21.4c0-11.5-9.4-20.9-20.8-20.9zm-20.9 40.7v74H40.7v-74h408.7zM184.6 282V156.9h120.9V282H184.6zm120.9 41.7v126.1H184.6V323.7h120.9zM142.9 282H40.7V156.9h102.2V282zm204.3-125.1h102.2V282H347.2V156.9zM40.7 323.7h102.2v126.1H40.7V323.7zm306.5 126.1V323.7h102.2v126.1H347.2z"/>
</svg>
